<svg xmlns="http://www.w3.org/2000/svg" viewBox="0 0 2000 2000"><defs><style>.cls-1{fill:none;}.cls-2,.cls-3{font-size:783.87px;font-family:AngleciaProDisplay-Regular, Anglecia Pro Display;}.cls-2{letter-spacing:0.2em;}.cls-3{letter-spacing:0.2em;}</style></defs><title>li</title><g id="OBJECTS"><path class="cls-1" d="M1038,1887c-9.74.31-19.49.61-29.31.61-408.18,0-752.32-273.27-860.07-646.76H94.85c109.2,402.4,476.83,698.44,913.79,698.44,9.63,0,19.19-.32,28.75-.6C1037.29,1921.44,1037.63,1904.21,1038,1887Z"/><path class="cls-1" d="M1008.64,45.34c-405.53,0-751.36,255-886.33,613.3h55.55C310.19,329.5,632.17,97,1008.64,97s698.45,232.48,830.77,561.62H1895C1760,300.32,1414.16,45.34,1008.64,45.34Z"/><path d="M1037.68,1939.81c-9.57.29-19.41-.54-29-.54-437,0-804.59-296-913.79-698.44H82.31C191.81,1650,565,1951.34,1008.64,1951.34c9.73,0,19.38-.32,29-.61C1037.63,1946.71,1037.7,1943.84,1037.68,1939.81Z"/><path d="M1008.64,45.34c405.52,0,751.36,255,886.32,613.3h13C1772.41,293.5,1421,33.27,1008.64,33.27S244.87,293.5,109.34,658.64h13C257.28,300.32,603.11,45.34,1008.64,45.34Z"/><path d="M1008.64,108.29c370.14,0,687,227.57,818.66,550.35h12.11C1707.09,329.5,1385.11,97,1008.64,97S310.19,329.5,177.86,658.64H190C321.68,335.86,638.5,108.29,1008.64,108.29Z"/><path d="M1038.08,1875.71c-9.78.32-19.58.61-29.44.61-401.91,0-740.95-268.3-848.35-635.49H148.57c107.75,373.49,451.89,646.76,860.07,646.76,9.82,0,19.57-.3,29.31-.61C1038,1883.22,1038,1879.47,1038.08,1875.71Z"/><path d="M130.1,918.78a35.25,35.25,0,1,1-35.25-35.25A35.25,35.25,0,0,1,130.1,918.78Z"/><path d="M1939.2,960.88A35.25,35.25,0,1,1,1904,925.62,35.25,35.25,0,0,1,1939.2,960.88Z"/><path d="M1797.83,1378.15c6-18.44,11-37,15.54-55.47q5.66-4.1,11-8.57c-5.19,22.29-11.11,44.55-18.26,66.71-115.41,357.55-439.2,583.27-796.95,570.52,3-2.74,7.9-9.35,10.82-12.19C1370.77,1947.91,1684.57,1729,1797.83,1378.15Z"/><path d="M1794.5,1332.57c-1.52-8.31-5.84-18.37-14.29-18.34-4.46,0-8.43,3.21-10.6,7.1s-2.89,8.41-3.47,12.82c-4.74,36-7,82.57,6.46,117C1798.53,1424.67,1800.73,1366.82,1794.5,1332.57Z"/><path d="M1737.55,1471.71c.14-7.89-1.44-17.59-8.87-20.26-4.53-1.63-9.73.26-13.23,3.55s-5.6,7.78-7.42,12.23c-11.34,27.82-21.25,80.16-3,107C1728,1549.25,1737,1504.63,1737.55,1471.71Z"/><path d="M1618.72,1653.32c1.47-5.73,2.64-11.72,1.52-17.52s-5-11.42-10.74-13c-8.16-2.2-16,4.23-21.55,10.57a168.28,168.28,0,0,0-31.75,53.88c-3.14,8.7-18.17,53.58-8.37,59.82,10.51,6.71,38-29.24,43.36-36.43A166,166,0,0,0,1618.72,1653.32Z"/><path d="M1507.73,1728.78c1.69-8.52,1.75-19.31-5.77-23.66-4.66-2.7-10.78-1.65-15.31,1.26s-7.81,7.39-10.86,11.84a319.86,319.86,0,0,0-45.42,99.65c-2.82,10.78-7.48,21.13,6.17,17.54,16.8-4.41,36.15-31.84,45.31-45.32A167.68,167.68,0,0,0,1507.73,1728.78Z"/><path d="M1786.83,1512.92c7-4.4,14.29-8.6,22.32-10.58s17-1.49,23.94,3c10.35,6.71,13.74,21.09,10.34,32.94s-12.32,21.38-22.2,28.76c-25.08,18.72-66.9,29.58-97.15,17.16-21.79-9,2.89-24.52,14.29-34.75A354.5,354.5,0,0,1,1786.83,1512.92Z"/><path d="M1663.81,1679.46c15.44-3.58,32.07-4.83,46.8,1s26.88,20.24,26.12,36.07c-.61,12.67-9.25,23.93-20.07,30.54s-23.59,9.21-36.18,10.71c-17.17,2-109.65,5.72-106.76-20,1.51-13.55,27.54-29.41,37.76-36A165.3,165.3,0,0,1,1663.81,1679.46Z"/><path d="M1537.9,1785.68c9.38-1.71,19.13-2.71,28.36-.33s17.91,8.72,20.86,17.79c3.11,9.55-.76,20.37-7.67,27.66s-16.39,11.6-25.94,14.7a141.38,141.38,0,0,1-54.63,6.28c-9.53-.75-49.65-4.78-53.26-15.77C1438.24,1813.58,1523.13,1788.37,1537.9,1785.68Z"/><path d="M1225.87,1840.93c1.17-6.1,1.86-12.53-.09-18.43s-7.18-11.09-13.39-11.23-11.17,4.28-15.48,8.56a300.55,300.55,0,0,0-49.35,64.69c-6.74,11.87-35.51,56.41-5.16,51.09C1183.92,1928.32,1218.52,1879.36,1225.87,1840.93Z"/><path d="M1343.9,1827c2.32-5.15,4.4-10.58,4.39-16.23s-2.51-11.59-7.45-14.32c-5.28-2.91-12.1-1.47-17,2s-8.4,8.6-11.7,13.64q-16.65,25.38-32.13,51.5c-6.32,10.65-27.22,36.26-24,48.14C1294.34,1900.88,1328.11,1862.13,1343.9,1827Z"/><path d="M1314.57,1920.59c8.92,1,18.13,2.45,25.63,7.38s12.82,14.25,10.47,22.91c-1.82,6.72-7.85,11.67-14.44,13.9s-13.72,2.15-20.67,1.7a215.75,215.75,0,0,1-54.06-10.62c-7.77-2.59-48.58-15.39-49.09-24.73C1211.44,1913.27,1302.49,1919.26,1314.57,1920.59Z"/><path d="M1420.9,1868.27c8,.42,16.29,1.47,22.88,6s10.78,13.45,7.52,20.75-11.94,10-19.72,11.56c-15.39,3.09-150.13.36-130.08-9.38C1325.52,1885.52,1406.39,1867.52,1420.9,1868.27Z"/><text class="cls-2" transform="translate(528.23 1136.01)">L</text><text class="cls-3" transform="translate(1098.71 1426.42)">I</text></g></svg>